Input #0, video4linux2,v4l2, from '/dev/video0':
  Duration: N/A, start: 1607585762.383203, bitrate: 283115 kb/s
    Stream #0:0: Video: rawvideo (I420 / 0x30323449), yuv420p, 1024x768, 283115 kb/s, 30 fps, 30 tbr, 1000k tbn, 1000k tbc
Stream mapping:
  Stream #0:0 -> #0:0 (rawvideo (native) -> mjpeg (native))
Press [q] to stop, [?] for help
[swscaler @ 0x24e16a0] deprecated pixel format used, make sure you did set range correctly
[mjpeg @ 0x24dc1a0] removing common factors from framerate
Output #0, avi, to 'raw_mjpeg.avi':
  Metadata:
    ISFT            : Lavf58.64.100
    Stream #0:0: Video: mjpeg (MJPG / 0x47504A4D), yuvj420p(pc, progressive), 1024x768, q=2-31, 200 kb/s, 30 fps, 30 tbn, 30 tbc
    Metadata:
      encoder         : Lavc58.114.100 mjpeg
    Side data:
      cpb: bitrate max/min/avg: 0/0/200000 buffer size: 0 vbv_delay: N/A
frame=    3 fps=0.0 q=2.9 size=     158kB time=00:00:00.60 bitrate=2154.0kbits/s speed=1.12x    frame=    6 fps=4.8 q=7.9 size=     256kB time=00:00:01.30 bitrate=1613.2kbits/s speed=1.05x    frame=    9 fps=4.8 q=16.4 size=     256kB time=00:00:01.96 bitrate=1066.3kbits/s speed=1.04x    frame=   12 fps=4.7 q=24.8 size=     256kB time=00:00:02.60 bitrate= 806.6kbits/s speed=1.02x    frame=   15 fps=4.6 q=24.8 size=     256kB time=00:00:03.30 bitrate= 635.5kbits/s speed=1.01x    frame=   18 fps=4.7 q=24.8 size=     512kB time=00:00:03.93 bitrate=1066.3kbits/s speed=1.02x    frame=   21 fps=4.7 q=24.8 size=     512kB time=00:00:04.56 bitrate= 918.5kbits/s speed=1.01x    frame=   24 fps=4.7 q=24.8 size=     512kB time=00:00:05.20 bitrate= 806.6kbits/s speed=1.01x    frame=   27 fps=4.7 q=24.8 size=     512kB time=00:00:05.83 bitrate= 719.0kbits/s speed=1.01x    frame=   30 fps=4.7 q=24.8 size=     768kB time=00:00:06.46 bitrate= 972.9kbits/s speed=1.01x    frame=   33 fps=4.7 q=24.8 size=     768kB time=00:00:07.13 bitrate= 882.0kbits/s speed=1.01x    frame=   36 fps=4.7 q=24.8 size=     768kB time=00:00:07.70 bitrate= 817.1kbits/s speed=1.01x    frame=   39 fps=4.7 q=24.8 size=     768kB time=00:00:08.40 bitrate= 749.0kbits/s speed=1.01x    frame=   42 fps=4.7 q=24.8 size=    1024kB time=00:00:09.03 bitrate= 928.6kbits/s speed=1.01x    frame=   45 fps=4.7 q=24.8 size=    1024kB time=00:00:09.66 bitrate= 867.8kbits/s speed=1.01x    frame=   48 fps=4.7 q=24.8 size=    1024kB time=00:00:10.30 bitrate= 814.4kbits/s speed=1.01x    frame=   51 fps=4.7 q=24.8 size=    1024kB time=00:00:10.96 bitrate= 764.9kbits/s speed=1.01x    frame=   54 fps=4.7 q=24.8 size=    1280kB time=00:00:11.56 bitrate= 906.5kbits/s speed=1.01x    frame=   57 fps=4.7 q=24.8 size=    1280kB time=00:00:12.23 bitrate= 857.1kbits/s speed=   1x    frame=   60 fps=4.7 q=24.8 size=    1280kB time=00:00:12.80 bitrate= 819.2kbits/s speed=   1x    frame=   63 fps=4.7 q=24.8 size=    1280kB time=00:00:13.46 bitrate= 778.6kbits/s speed=   1x    frame=   66 fps=4.7 q=24.8 size=    1536kB time=00:00:14.16 bitrate= 888.2kbits/s speed=   1x    frame=   69 fps=4.7 q=24.8 size=    1536kB time=00:00:14.80 bitrate= 850.2kbits/s speed=   1x    frame=   72 fps=4.7 q=24.8 size=    1536kB time=00:00:15.40 bitrate= 817.1kbits/s speed=   1x    frame=   75 fps=4.7 q=24.8 size=    1536kB time=00:00:16.06 bitrate= 783.2kbits/s speed=   1x    frame=   78 fps=4.7 q=24.8 size=    1792kB time=00:00:16.70 bitrate= 879.0kbits/s speed=   1x    frame=   81 fps=4.7 q=24.8 size=    1792kB time=00:00:17.36 bitrate= 845.3kbits/s speed=   1x    frame=   84 fps=4.7 q=24.8 size=    1792kB time=00:00:17.96 bitrate= 817.1kbits/s speed=   1x    frame=   87 fps=4.7 q=24.8 size=    1792kB time=00:00:18.63 bitrate= 787.8kbits/s speed=   1x    frame=   90 fps=4.7 q=24.8 size=    2048kB time=00:00:19.23 bitrate= 872.3kbits/s speed=   1x    frame=   93 fps=4.7 q=24.8 size=    2048kB time=00:00:19.90 bitrate= 843.1kbits/s speed=   1x    frame=   96 fps=4.7 q=24.8 size=    2048kB time=00:00:20.53 bitrate= 817.1kbits/s speed=   1x    frame=   99 fps=4.7 q=24.8 size=    2048kB time=00:00:21.16 bitrate= 792.6kbits/s speed=   1x    frame=  102 fps=4.7 q=24.8 size=    2304kB time=00:00:21.80 bitrate= 865.8kbits/s speed=   1x    frame=  105 fps=4.7 q=24.8 size=    2304kB time=00:00:22.46 bitrate= 840.1kbits/s speed=   1x    frame=  108 fps=4.7 q=24.8 size=    2304kB time=00:00:23.06 bitrate= 818.3kbits/s speed=   1x    frame=  111 fps=4.7 q=24.8 size=    2304kB time=00:00:23.73 bitrate= 795.3kbits/s speed=   1x    frame=  114 fps=4.7 q=24.8 size=    2560kB time=00:00:24.33 bitrate= 861.8kbits/s speed=   1x    frame=  117 fps=4.7 q=24.8 size=    2560kB time=00:00:25.03 bitrate= 837.7kbits/s speed=   1x    frame=  120 fps=4.7 q=24.8 size=    2560kB time=00:00:25.73 bitrate= 815.0kbits/s speed=   1x    frame=  123 fps=4.7 q=24.8 size=    2560kB time=00:00:26.30 bitrate= 797.4kbits/s speed=   1x    frame=  126 fps=4.7 q=24.8 size=    2816kB time=00:00:26.96 bitrate= 855.5kbits/s speed=   1x    frame=  129 fps=4.7 q=24.8 size=    2816kB time=00:00:27.60 bitrate= 835.8kbits/s speed=   1x    frame=  132 fps=4.7 q=24.8 size=    2816kB time=00:00:28.26 bitrate= 816.1kbits/s speed=   1x    frame=  135 fps=4.7 q=24.8 size=    2816kB time=00:00:28.86 bitrate= 799.1kbits/s speed=   1x    frame=  138 fps=4.7 q=24.8 size=    2816kB time=00:00:29.50 bitrate= 782.0kbits/s speed=   1x    frame=  141 fps=4.7 q=24.8 size=    3072kB time=00:00:30.13 bitrate= 835.1kbits/s speed=   1x    frame=  144 fps=4.7 q=24.8 size=    3072kB time=00:00:30.86 bitrate= 815.3kbits/s speed=   1x    frame=  147 fps=4.7 q=24.8 size=    3072kB time=00:00:31.43 bitrate= 800.6kbits/s speed=   1x    frame=  150 fps=4.7 q=24.8 size=    3328kB time=00:00:32.10 bitrate= 849.3kbits/s speed=   1x    frame=  153 fps=4.7 q=24.8 size=    3328kB time=00:00:32.70 bitrate= 833.7kbits/s speed=   1x    frame=  156 fps=4.7 q=24.8 size=    3328kB time=00:00:33.36 bitrate= 817.1kbits/s speed=   1x    frame=  159 fps=4.7 q=24.8 size=    3328kB time=00:00:33.96 bitrate= 802.6kbits/s speed=   1x    frame=  162 fps=4.7 q=24.8 size=    3584kB time=00:00:34.66 bitrate= 846.9kbits/s speed=   1x    frame=  165 fps=4.7 q=24.8 size=    3584kB time=00:00:35.26 bitrate= 832.5kbits/s speed=   1x    frame=  168 fps=4.7 q=24.8 size=    3584kB time=00:00:35.96 bitrate= 816.3kbits/s speed=   1x    frame=  171 fps=4.7 q=24.8 size=    3584kB time=00:00:36.63 bitrate= 801.5kbits/s speed=   1x    frame=  174 fps=4.7 q=24.8 size=    3840kB time=00:00:37.23 bitrate= 844.9kbits/s speed=   1x    frame=  177 fps=4.7 q=24.8 size=    3840kB time=00:00:37.86 bitrate= 830.7kbits/s speed=   1x    frame=  180 fps=4.7 q=24.8 size=    3840kB time=00:00:38.46 bitrate= 817.8kbits/s speed=   1x    frame=  183 fps=4.7 q=24.8 size=    3840kB time=00:00:39.06 bitrate= 805.2kbits/s speed=   1x    frame=  186 fps=4.7 q=24.8 size=    4096kB time=00:00:39.66 bitrate= 845.9kbits/s speed=   1x    frame=  189 fps=4.7 q=24.8 size=    4096kB time=00:00:40.26 bitrate= 833.3kbits/s speed=   1x    frame=  192 fps=4.7 q=24.8 size=    4096kB time=00:00:40.90 bitrate= 820.4kbits/s speed=   1x    frame=  195 fps=4.7 q=24.8 size=    4096kB time=00:00:41.53 bitrate= 807.9kbits/s speed=   1x    frame=  198 fps=4.7 q=24.8 size=    4096kB time=00:00:42.16 bitrate= 795.8kbits/s speed=   1x    frame=  201 fps=4.7 q=24.8 size=    4352kB time=00:00:42.76 bitrate= 833.6kbits/s speed=   1x    frame=  204 fps=4.7 q=24.8 size=    4352kB time=00:00:43.36 bitrate= 822.1kbits/s speed=   1x    frame=  207 fps=4.7 q=24.8 size=    4352kB time=00:00:43.96 bitrate= 810.9kbits/s speed=   1x    frame=  210 fps=4.7 q=24.8 size=    4352kB time=00:00:44.56 bitrate= 800.0kbits/s speed=   1x    frame=  213 fps=4.7 q=24.8 size=    4608kB time=00:00:45.16 bitrate= 835.8kbits/s speed=   1x    frame=  216 fps=4.7 q=24.8 size=    4608kB time=00:00:45.76 bitrate= 824.8kbits/s speed=   1x    frame=  219 fps=4.7 q=24.8 size=    4608kB time=00:00:46.36 bitrate= 814.1kbits/s speed=   1x    frame=  222 fps=4.7 q=24.8 size=    4608kB time=00:00:46.96 bitrate= 803.7kbits/s speed=   1x    frame=  225 fps=4.7 q=24.8 size=    4864kB time=00:00:47.63 bitrate= 836.5kbits/s speed=   1x    frame=  228 fps=4.7 q=24.8 size=    4864kB time=00:00:48.20 bitrate= 826.7kbits/s speed=   1x    frame=  231 fps=4.7 q=24.8 size=    4864kB time=00:00:48.80 bitrate= 816.5kbits/s speed=   1x    frame=  234 fps=4.7 q=24.8 size=    4864kB time=00:00:49.40 bitrate= 806.6kbits/s speed=   1x    frame=  237 fps=4.7 q=24.8 size=    5120kB time=00:00:50.00 bitrate= 838.9kbits/s speed=   1x    frame=  240 fps=4.7 q=24.8 size=    5120kB time=00:00:50.60 bitrate= 828.9kbits/s speed=   1x    frame=  243 fps=4.8 q=24.8 size=    5120kB time=00:00:51.23 bitrate= 818.7kbits/s speed=   1x    frame=  246 fps=4.8 q=24.8 size=    5120kB time=00:00:51.83 bitrate= 809.2kbits/s speed=   1x    frame=  249 fps=4.8 q=24.8 size=    5376kB time=00:00:52.46 bitrate= 839.4kbits/s speed=   1x    frame=  252 fps=4.8 q=24.8 size=    5376kB time=00:00:53.10 bitrate= 829.4kbits/s speed=   1x    frame=  255 fps=4.8 q=24.8 size=    5376kB time=00:00:53.70 bitrate= 820.1kbits/s speed=   1x    frame=  258 fps=4.8 q=24.8 size=    5376kB time=00:00:54.30 bitrate= 811.1kbits/s speed=   1x    frame=  261 fps=4.8 q=24.8 size=    5632kB time=00:00:54.93 bitrate= 839.9kbits/s speed=   1x    frame=  264 fps=4.8 q=24.8 size=    5632kB time=00:00:55.56 bitrate= 830.3kbits/s speed=   1x    frame=  267 fps=4.8 q=24.8 size=    5632kB time=00:00:56.16 bitrate= 821.4kbits/s speed=   1x    frame=  270 fps=4.8 q=24.8 size=    5632kB time=00:00:56.73 bitrate= 813.2kbits/s speed=   1x    frame=  273 fps=4.8 q=24.8 size=    5888kB time=00:00:57.36 bitrate= 840.8kbits/s speed=   1x    frame=  276 fps=4.8 q=24.8 size=    5888kB time=00:00:58.00 bitrate= 831.6kbits/s speed=   1x    frame=  279 fps=4.8 q=24.8 size=    5888kB time=00:00:58.66 bitrate= 822.2kbits/s speed=   1x    frame=  282 fps=4.8 q=24.8 size=    5888kB time=00:00:59.23 bitrate= 814.3kbits/s speed=   1x    frame=  285 fps=4.8 q=24.8 size=    6144kB time=00:00:59.83 bitrate= 841.2kbits/s speed=   1x    frame=  285 fps=4.7 q=24.8 Lsize=    6179kB time=00:00:59.83 bitrate= 846.0kbits/s speed=0.997x    
video:6131kB audio:0kB subtitle:0kB other streams:0kB global headers:0kB muxing overhead: 0.779048%
